<svg width="40" height="29" viewBox="0 0 40 29" fill="none" xmlns="http://www.w3.org/2000/svg">
<path d="M14.0518 20H10.3027V13.4688H4.74902V20H0.978516V4.35938H4.74902V10.5684H10.3027V4.35938H14.0518V20ZM24.1296 0.831999C24.1296 0.917332 24.0763 1.16267 23.9696 1.568C23.863 1.952 23.735 2.4 23.5856 2.912C23.4363 3.424 23.2656 3.95733 23.0736 4.512C22.903 5.04533 22.7536 5.49333 22.6256 5.856C22.583 5.96267 22.5403 6.08 22.4976 6.208C22.455 6.336 22.3483 6.4 22.1776 6.4C22.0496 6.4 21.943 6.35733 21.8576 6.272C21.7723 6.16533 21.7083 6.048 21.6656 5.92C21.623 5.77067 21.591 5.632 21.5696 5.504C21.5696 5.35467 21.5696 5.23733 21.5696 5.152C21.5696 5.00267 21.6336 4.672 21.7616 4.16C21.8896 3.648 22.0496 3.11467 22.2416 2.56C22.4336 2.00533 22.647 1.51467 22.8816 1.088C23.1163 0.639999 23.351 0.415998 23.5856 0.415998C23.735 0.415998 23.863 0.458665 23.9696 0.543999C24.0763 0.629332 24.1296 0.725332 24.1296 0.831999ZM24.3216 14.24C24.3216 14.624 24.1403 14.8693 23.7776 14.976C23.5216 15.04 23.191 15.168 22.7856 15.36C22.3803 15.5307 21.9536 15.712 21.5056 15.904C21.079 16.0747 20.663 16.2347 20.2576 16.384C19.8523 16.512 19.511 16.576 19.2336 16.576C18.7643 16.576 18.3803 16.5013 18.0816 16.352C17.783 16.2027 17.6336 15.9893 17.6336 15.712C17.6336 15.3493 17.6976 15.0507 17.8256 14.816C17.9536 14.56 18.0923 14.336 18.2416 14.144C18.2416 14.1227 18.167 14.0907 18.0176 14.048C17.8683 14.0053 17.7083 13.9413 17.5376 13.856C17.367 13.7707 17.207 13.6747 17.0576 13.568C16.9083 13.4613 16.8336 13.3333 16.8336 13.184C16.8336 12.8 17.0363 12.3627 17.4416 11.872C17.8683 11.3813 18.3376 10.912 18.8496 10.464C19.383 10.016 19.8843 9.632 20.3536 9.312C20.8443 8.992 21.143 8.81067 21.2496 8.768C21.4203 8.68267 21.6336 8.59733 21.8896 8.512C22.1456 8.40533 22.327 8.352 22.4336 8.352C22.711 8.352 22.8496 8.50133 22.8496 8.8C22.8496 8.97067 22.8283 9.152 22.7856 9.344C22.743 9.51467 22.6363 9.6 22.4656 9.6C22.3376 9.6 22.2416 9.58933 22.1776 9.568C22.1136 9.52533 22.0603 9.504 22.0176 9.504C21.8896 9.504 21.719 9.55733 21.5056 9.664C21.3136 9.74933 21.143 9.84533 20.9936 9.952C20.8016 10.1013 20.5776 10.2933 20.3216 10.528C20.0656 10.7413 19.8096 10.9653 19.5536 11.2C19.2976 11.4347 19.063 11.68 18.8496 11.936C18.6363 12.1707 18.4656 12.3947 18.3376 12.608C18.3803 12.6293 18.455 12.6613 18.5616 12.704C18.6896 12.7253 18.7856 12.736 18.8496 12.736C18.935 12.736 19.0416 12.6933 19.1696 12.608C19.2976 12.5227 19.4256 12.4373 19.5536 12.352C19.703 12.2453 19.8523 12.1493 20.0016 12.064C20.1723 11.9787 20.3216 11.936 20.4496 11.936C20.6843 11.936 20.855 12.0107 20.9616 12.16C21.0683 12.288 21.1216 12.384 21.1216 12.448C21.1216 12.8107 20.9616 13.152 20.6416 13.472C20.3216 13.792 20.0123 14.0373 19.7136 14.208C19.6496 14.3787 19.6176 14.496 19.6176 14.56C19.6176 14.752 19.7243 14.848 19.9376 14.848C20.087 14.848 20.311 14.784 20.6096 14.656C20.9296 14.5067 21.271 14.3573 21.6336 14.208C22.0176 14.0373 22.3803 13.888 22.7216 13.76C23.0843 13.6107 23.3936 13.536 23.6496 13.536C23.863 13.536 24.023 13.6213 24.1296 13.792C24.2576 13.9627 24.3216 14.112 24.3216 14.24ZM20.1616 22.272C20.1616 22.656 20.1083 23.1573 20.0016 23.776C19.895 24.3947 19.7883 24.992 19.6816 25.568C19.5536 26.2507 19.4043 26.9547 19.2336 27.68C19.191 27.7867 19.0843 27.8827 18.9136 27.968C18.7643 28.0747 18.583 28.128 18.3696 28.128C18.2416 28.128 18.1456 28.0853 18.0816 28C18.0176 27.9147 17.9643 27.808 17.9216 27.68C17.9003 27.5733 17.8896 27.4667 17.8896 27.36C17.8896 27.2533 17.8896 27.1787 17.8896 27.136C17.8896 26.7947 17.9216 26.4107 17.9856 25.984C18.071 25.5787 18.167 25.1413 18.2736 24.672C18.3803 24.224 18.487 23.7653 18.5936 23.296C18.7003 22.8267 18.7856 22.3573 18.8496 21.888C18.871 21.6533 18.9243 21.376 19.0096 21.056C19.1163 20.736 19.3083 20.576 19.5856 20.576C19.863 20.576 20.023 20.736 20.0656 21.056C20.1296 21.3973 20.1616 21.8027 20.1616 22.272ZM39.9893 20H36.2402V13.4688H30.6865V20H26.916V4.35938H30.6865V10.5684H36.2402V4.35938H39.9893V20Z" fill="#D52121"/>
</svg>
