<svg width="83" height="33" viewBox="0 0 83 33" fill="none" xmlns="http://www.w3.org/2000/svg">
<path d="M25.9424 32H18.7852V19.5312H8.18262V32H0.984375V2.14062H8.18262V13.9941H18.7852V2.14062H25.9424V32ZM55.0138 32H50.7298C50.5058 31.72 50.2538 31.426 49.9738 31.118C49.7498 30.838 49.4698 30.516 49.1338 30.152C48.8258 29.76 48.4758 29.326 48.0838 28.85C47.1878 29.914 46.0118 30.782 44.5558 31.454C43.1278 32.098 41.5038 32.42 39.6838 32.42C38.2278 32.42 36.8838 32.196 35.6518 31.748C34.4478 31.3 33.3978 30.67 32.5018 29.858C31.6338 29.046 30.9478 28.094 30.4438 27.002C29.9678 25.882 29.7298 24.664 29.7298 23.348C29.7298 22.228 29.9118 21.178 30.2758 20.198C30.6398 19.218 31.1438 18.35 31.7878 17.594C32.4318 16.81 33.1878 16.138 34.0558 15.578C34.9238 15.018 35.8758 14.598 36.9118 14.318C36.5198 13.73 36.1698 13.184 35.8618 12.68C35.5538 12.148 35.2878 11.686 35.0638 11.294C34.6158 10.398 34.2518 9.586 33.9718 8.858C33.6918 8.102 33.5518 7.29 33.5518 6.422C33.5518 5.47 33.7338 4.616 34.0978 3.86C34.4898 3.076 35.0078 2.418 35.6518 1.886C36.3238 1.354 37.0938 0.947998 37.9618 0.667998C38.8578 0.359998 39.7958 0.191999 40.7758 0.163999C42.1198 0.107998 43.3378 0.261998 44.4298 0.625998C45.5218 0.989999 46.3898 1.396 47.0338 1.844C47.0338 1.844 46.9218 1.998 46.6978 2.306C46.5018 2.586 46.2778 2.894 46.0258 3.23C45.8018 3.566 45.5778 3.888 45.3538 4.196C45.1578 4.476 45.0598 4.63 45.0598 4.658C44.7518 4.434 44.3738 4.238 43.9258 4.07C43.4778 3.874 42.9598 3.748 42.3718 3.692C41.7838 3.608 41.1958 3.608 40.6078 3.692C40.0198 3.776 39.4878 3.944 39.0118 4.196C38.5358 4.448 38.1438 4.798 37.8358 5.246C37.5558 5.694 37.4158 6.24 37.4158 6.884C37.4158 7.64 37.5558 8.312 37.8358 8.9C38.1158 9.488 38.3118 9.852 38.4238 9.992L47.5798 22.172L50.7718 13.982H54.5938L50.0578 25.49L55.0138 32ZM39.1798 17.51C38.4238 17.538 37.6958 17.706 36.9958 18.014C36.2958 18.294 35.6658 18.686 35.1058 19.19C34.5738 19.694 34.1398 20.296 33.8038 20.996C33.4958 21.668 33.3418 22.382 33.3418 23.138C33.3418 24.146 33.5238 25.014 33.8878 25.742C34.2798 26.442 34.7838 27.03 35.3998 27.506C36.0158 27.982 36.7158 28.332 37.4998 28.556C38.3118 28.78 39.1238 28.892 39.9358 28.892C40.4958 28.892 41.0698 28.822 41.6578 28.682C42.2458 28.542 42.8058 28.36 43.3378 28.136C43.8698 27.884 44.3598 27.59 44.8078 27.254C45.2558 26.918 45.6198 26.554 45.8998 26.162C44.8358 24.818 43.7158 23.404 42.5398 21.92C41.3638 20.408 40.2438 18.938 39.1798 17.51ZM82.9541 32H75.7969V19.5312H65.1943V32H57.9961V2.14062H65.1943V13.9941H75.7969V2.14062H82.9541V32Z" fill="#D52121"/>
</svg>
