<svg width="72" height="46" viewBox="0 0 72 46" fill="none" xmlns="http://www.w3.org/2000/svg">
<path d="M25.1768 32H18.0195V19.5312H7.41699V32H0.21875V2.14062H7.41699V13.9941H18.0195V2.14062H25.1768V32ZM41.8981 0.851998C41.8981 0.990665 41.8115 1.38933 41.6381 2.048C41.4648 2.672 41.2568 3.4 41.0141 4.232C40.7715 5.064 40.4941 5.93066 40.1821 6.832C39.9048 7.69867 39.6621 8.42667 39.4541 9.016C39.3848 9.18933 39.3155 9.38 39.2461 9.588C39.1768 9.796 39.0035 9.9 38.7261 9.9C38.5181 9.9 38.3448 9.83067 38.2061 9.692C38.0675 9.51867 37.9635 9.328 37.8941 9.12C37.8248 8.87733 37.7728 8.652 37.7381 8.444C37.7381 8.20133 37.7381 8.01067 37.7381 7.872C37.7381 7.62933 37.8421 7.092 38.0501 6.26C38.2581 5.428 38.5181 4.56133 38.8301 3.66C39.1421 2.75867 39.4888 1.96133 39.8701 1.268C40.2515 0.539998 40.6328 0.175997 41.0141 0.175997C41.2568 0.175997 41.4648 0.245331 41.6381 0.383998C41.8115 0.522665 41.8981 0.678665 41.8981 0.851998ZM42.2101 22.64C42.2101 23.264 41.9155 23.6627 41.3261 23.836C40.9101 23.94 40.3728 24.148 39.7141 24.46C39.0555 24.7373 38.3621 25.032 37.6341 25.344C36.9408 25.6213 36.2648 25.8813 35.6061 26.124C34.9475 26.332 34.3928 26.436 33.9421 26.436C33.1795 26.436 32.5555 26.3147 32.0701 26.072C31.5848 25.8293 31.3421 25.4827 31.3421 25.032C31.3421 24.4427 31.4461 23.9573 31.6541 23.576C31.8621 23.16 32.0875 22.796 32.3301 22.484C32.3301 22.4493 32.2088 22.3973 31.9661 22.328C31.7235 22.2587 31.4635 22.1547 31.1861 22.016C30.9088 21.8773 30.6488 21.7213 30.4061 21.548C30.1635 21.3747 30.0421 21.1667 30.0421 20.924C30.0421 20.3 30.3715 19.5893 31.0301 18.792C31.7235 17.9947 32.4861 17.232 33.3181 16.504C34.1848 15.776 34.9995 15.152 35.7621 14.632C36.5595 14.112 37.0448 13.8173 37.2181 13.748C37.4955 13.6093 37.8421 13.4707 38.2581 13.332C38.6741 13.1587 38.9688 13.072 39.1421 13.072C39.5928 13.072 39.8181 13.3147 39.8181 13.8C39.8181 14.0773 39.7835 14.372 39.7141 14.684C39.6448 14.9613 39.4715 15.1 39.1941 15.1C38.9861 15.1 38.8301 15.0827 38.7261 15.048C38.6221 14.9787 38.5355 14.944 38.4661 14.944C38.2581 14.944 37.9808 15.0307 37.6341 15.204C37.3221 15.3427 37.0448 15.4987 36.8021 15.672C36.4901 15.9147 36.1261 16.2267 35.7101 16.608C35.2941 16.9547 34.8781 17.3187 34.4621 17.7C34.0461 18.0813 33.6648 18.48 33.3181 18.896C32.9715 19.2773 32.6941 19.6413 32.4861 19.988C32.5555 20.0227 32.6768 20.0747 32.8501 20.144C33.0581 20.1787 33.2141 20.196 33.3181 20.196C33.4568 20.196 33.6301 20.1267 33.8381 19.988C34.0461 19.8493 34.2541 19.7107 34.4621 19.572C34.7048 19.3987 34.9475 19.2427 35.1901 19.104C35.4675 18.9653 35.7101 18.896 35.9181 18.896C36.2995 18.896 36.5768 19.0173 36.7501 19.26C36.9235 19.468 37.0101 19.624 37.0101 19.728C37.0101 20.3173 36.7501 20.872 36.2301 21.392C35.7101 21.912 35.2075 22.3107 34.7221 22.588C34.6181 22.8653 34.5661 23.056 34.5661 23.16C34.5661 23.472 34.7395 23.628 35.0861 23.628C35.3288 23.628 35.6928 23.524 36.1781 23.316C36.6981 23.0733 37.2528 22.8307 37.8421 22.588C38.4661 22.3107 39.0555 22.068 39.6101 21.86C40.1995 21.6173 40.7021 21.496 41.1181 21.496C41.4648 21.496 41.7248 21.6347 41.8981 21.912C42.1061 22.1893 42.2101 22.432 42.2101 22.64ZM35.4501 35.692C35.4501 36.316 35.3635 37.1307 35.1901 38.136C35.0168 39.1413 34.8435 40.112 34.6701 41.048C34.4621 42.1573 34.2195 43.3013 33.9421 44.48C33.8728 44.6533 33.6995 44.8093 33.4221 44.948C33.1795 45.1213 32.8848 45.208 32.5381 45.208C32.3301 45.208 32.1741 45.1387 32.0701 45C31.9661 44.8613 31.8795 44.688 31.8101 44.48C31.7755 44.3067 31.7581 44.1333 31.7581 43.96C31.7581 43.7867 31.7581 43.6653 31.7581 43.596C31.7581 43.0413 31.8101 42.4173 31.9141 41.724C32.0528 41.0653 32.2088 40.3547 32.3821 39.592C32.5555 38.864 32.7288 38.1187 32.9021 37.356C33.0755 36.5933 33.2141 35.8307 33.3181 35.068C33.3528 34.6867 33.4395 34.236 33.5781 33.716C33.7515 33.196 34.0635 32.936 34.5141 32.936C34.9648 32.936 35.2248 33.196 35.2941 33.716C35.3981 34.2707 35.4501 34.9293 35.4501 35.692ZM71.7197 32H64.5625V19.5312H53.96V32H46.7617V2.14062H53.96V13.9941H64.5625V2.14062H71.7197V32Z" fill="#D52121"/>
</svg>
